<svg xmlns="http://www.w3.org/2000/svg" viewBox="0 0 32 32" width="32" height="32">
  <rect width="32" height="32" fill="#FFFFFF"/>
  <rect x="2" y="6" width="8" height="2" fill="#000000"/>
  <rect x="2" y="6" width="2" height="8" fill="#000000"/>
  <rect x="2" y="12" width="8" height="2" fill="#000000"/>
  <rect x="8" y="12" width="2" height="8" fill="#000000"/>
  <rect x="2" y="18" width="8" height="2" fill="#000000"/>
  <rect x="12" y="6" width="6" height="2" fill="#000000"/>
  <rect x="12" y="6" width="2" height="14" fill="#000000"/>
  <rect x="12" y="18" width="6" height="2" fill="#000000"/>
  <rect x="20" y="6" width="8" height="2" fill="#000000"/>
  <rect x="20" y="6" width="2" height="8" fill="#000000"/>
  <rect x="20" y="12" width="8" height="2" fill="#000000"/>
  <rect x="26" y="12" width="2" height="8" fill="#000000"/>
  <rect x="20" y="18" width="8" height="2" fill="#000000"/>
  <rect x="2" y="26" width="28" height="2" fill="#000000"/>
</svg>