<svg xmlns="http://www.w3.org/2000/svg" viewBox="0 0 512 512" width="512" height="512">
  <rect width="512" height="512" fill="#FFFFFF"/>
  <rect x="32" y="96" width="160" height="48" fill="#000000"/>
  <rect x="32" y="96" width="48" height="144" fill="#000000"/>
  <rect x="32" y="192" width="160" height="48" fill="#000000"/>
  <rect x="144" y="192" width="48" height="144" fill="#000000"/>
  <rect x="32" y="288" width="160" height="48" fill="#000000"/>
  <rect x="208" y="96" width="128" height="48" fill="#000000"/>
  <rect x="208" y="96" width="48" height="240" fill="#000000"/>
  <rect x="208" y="288" width="128" height="48" fill="#000000"/>
  <rect x="352" y="96" width="160" height="48" fill="#000000"/>
  <rect x="352" y="96" width="48" height="144" fill="#000000"/>
  <rect x="352" y="192" width="160" height="48" fill="#000000"/>
  <rect x="464" y="192" width="48" height="144" fill="#000000"/>
  <rect x="352" y="288" width="160" height="48" fill="#000000"/>
  <rect x="32" y="400" width="480" height="16" fill="#000000"/>
</svg>