<svg xmlns="http://www.w3.org/2000/svg" viewBox="0 0 128 128" width="128" height="128">
  <rect width="128" height="128" fill="#FFFFFF"/>
  <rect x="8" y="24" width="40" height="12" fill="#000000"/>
  <rect x="8" y="24" width="12" height="36" fill="#000000"/>
  <rect x="8" y="48" width="40" height="12" fill="#000000"/>
  <rect x="36" y="48" width="12" height="36" fill="#000000"/>
  <rect x="8" y="72" width="40" height="12" fill="#000000"/>
  <rect x="52" y="24" width="32" height="12" fill="#000000"/>
  <rect x="52" y="24" width="12" height="60" fill="#000000"/>
  <rect x="52" y="72" width="32" height="12" fill="#000000"/>
  <rect x="88" y="24" width="40" height="12" fill="#000000"/>
  <rect x="88" y="24" width="12" height="36" fill="#000000"/>
  <rect x="88" y="48" width="40" height="12" fill="#000000"/>
  <rect x="116" y="48" width="12" height="36" fill="#000000"/>
  <rect x="88" y="72" width="40" height="12" fill="#000000"/>
  <rect x="8" y="100" width="120" height="4" fill="#000000"/>
</svg>